<svg width="123" height="121" viewBox="0 0 123 121" fill="none" xmlns="http://www.w3.org/2000/svg">
<g clip-path="url(#clip0_34_338)">
<path fill-rule="evenodd" clip-rule="evenodd" d="M23.28 56.09H88.82V36.75H68.49C66.36 36.75 63.38 35.59 61.98 34.19C60.57 32.78 59.71 30.25 59.71 28.12V7.52H8.02C7.84 7.52 7.7 7.61 7.61 7.7C7.47 7.79 7.43 7.93 7.43 8.11V112.87C7.43 113.01 7.52 113.19 7.61 113.28C7.7 113.42 7.88 113.46 8.02 113.46C30.44 113.46 65.18 113.46 88.23 113.46C88.41 113.46 88.4 113.37 88.49 113.28C88.63 113.19 88.82 113.01 88.82 112.87V101.89H23.28C19.2 101.89 15.84 98.54 15.84 94.45V63.53C15.84 59.44 19.19 56.09 23.28 56.09ZM44.9 83.6H36.33L35.1 87.64H27.38L36.6 63.16H44.88L54.06 87.64H46.14L44.9 83.6ZM43.3 78.3L40.63 69.5L37.95 78.3H43.3ZM56.87 63.15H63.68V67.83H56.87V63.15ZM56.87 69.89H63.68V87.09C63.68 89.28 63.52 90.83 63.2 91.75C62.89 92.66 62.3 93.4 61.44 93.97C60.58 94.53 59.36 94.82 57.77 94.82C56.45 94.82 54.82 94.63 52.87 94.23L53.89 89.28C54.44 89.39 54.84 89.45 55.1 89.45C55.68 89.45 56.12 89.25 56.42 88.86C56.72 88.47 56.87 87.68 56.87 86.5V69.89ZM74.21 75.64L67.71 74.96C67.95 73.82 68.31 72.93 68.77 72.28C69.23 71.62 69.89 71.06 70.77 70.58C71.39 70.23 72.25 69.96 73.34 69.78C74.43 69.59 75.61 69.5 76.88 69.5C78.91 69.5 80.54 69.61 81.78 69.84C83.01 70.07 84.04 70.55 84.86 71.27C85.44 71.77 85.9 72.48 86.23 73.4C86.57 74.32 86.73 75.19 86.73 76.03V83.87C86.73 84.71 86.78 85.36 86.89 85.84C86.99 86.31 87.23 86.92 87.58 87.65H81.21C80.95 87.19 80.79 86.85 80.71 86.61C80.64 86.37 80.56 86 80.48 85.49C79.59 86.35 78.71 86.95 77.82 87.32C76.62 87.81 75.22 88.06 73.63 88.06C71.52 88.06 69.91 87.57 68.81 86.58C67.71 85.6 67.16 84.39 67.16 82.95C67.16 81.6 67.55 80.49 68.35 79.62C69.14 78.75 70.6 78.1 72.73 77.68C75.28 77.17 76.93 76.81 77.69 76.6C78.45 76.4 79.25 76.13 80.1 75.79C80.1 74.95 79.93 74.37 79.58 74.04C79.24 73.7 78.63 73.54 77.77 73.54C76.66 73.54 75.83 73.72 75.27 74.08C74.82 74.34 74.48 74.86 74.21 75.64ZM80.09 79.19C79.16 79.53 78.18 79.82 77.16 80.08C75.78 80.45 74.9 80.82 74.54 81.17C74.16 81.54 73.97 81.96 73.97 82.44C73.97 82.98 74.16 83.43 74.53 83.77C74.91 84.11 75.45 84.28 76.18 84.28C76.94 84.28 77.64 84.09 78.3 83.72C78.95 83.35 79.41 82.9 79.69 82.36C79.96 81.82 80.1 81.13 80.1 80.27V79.19H80.09ZM89.26 69.89H97.33L100.15 74.84L103.42 69.89H110.91L104.87 78.35L111.35 87.64H103.42L100.15 81.92L96.27 87.64H88.92L95.38 78.35L89.26 69.89ZM96.23 56.09H115.44C119.53 56.09 122.88 59.45 122.88 63.53V94.45C122.88 98.53 119.52 101.89 115.44 101.89H96.23V115.22C96.23 116.81 95.6 118.21 94.55 119.26C93.51 120.3 92.1 120.94 90.51 120.94C61.54 120.94 34.82 120.94 5.7 120.94C4.11 120.94 2.71 120.31 1.66 119.26C0.63 118.21 0 116.8 0 115.21V5.76C0 4.17 0.63 2.77 1.68 1.72C2.72 0.68 4.17 0.04 5.72 0.04H63.5C63.63 0 63.77 0 63.91 0C64.54 0 65.18 0.27 65.63 0.68H65.72C65.81 0.73 65.86 0.77 65.95 0.86L95.47 30.74C95.97 31.24 96.33 31.92 96.33 32.69C96.33 32.92 96.28 33.1 96.24 33.32V56.09H96.23ZM66.44 27.52V8.8L87.52 30.16H69.07C68.34 30.16 67.71 29.84 67.21 29.39C66.76 28.93 66.44 28.25 66.44 27.52Z" fill="#7079F0"/>
</g>
<defs>
<clipPath id="clip0_34_338">
<rect width="122.88" height="120.93" fill="white"/>
</clipPath>
</defs>
</svg>
