<svg width="100" height="100" viewBox="0 0 100 100" fill="none" xmlns="http://www.w3.org/2000/svg">
<g clip-path="url(#clip0_34_402)">
<path fill-rule="evenodd" clip-rule="evenodd" d="M28.1809 36.3178C28.1809 38.3757 28.3138 40.0443 28.5466 41.2679C28.8127 42.4914 29.1454 43.8264 29.611 45.2722C29.7772 45.7172 29.8438 46.1622 29.8438 46.5515C29.8438 47.1079 29.6443 47.6637 29.212 48.2201L27.1165 50.5559C26.8171 50.8895 26.518 51.0566 26.2519 51.0566C25.9192 51.0566 25.5868 50.7786 25.2541 50.278C24.7885 49.4437 24.3895 48.5537 24.0568 47.6637C23.7241 46.7181 23.3917 45.6615 23.0257 44.3823C20.4313 49.4994 17.1721 52.0574 13.2475 52.0574C10.454 52.0574 8.22556 50.7224 6.59596 48.053C4.96636 45.3831 4.13477 41.8237 4.13477 37.3744C4.13477 32.6466 5.13256 28.8092 7.16146 25.9171C9.19036 23.0249 11.8844 21.5791 15.3097 21.5791C16.4404 21.5791 17.6047 21.7457 18.8353 22.0241C20.0659 22.302 21.3298 22.747 22.66 23.2477V19.1876C22.66 14.9605 22.1278 12.0132 21.0967 10.2889C20.0323 8.56463 18.2365 7.73035 15.6754 7.73035C14.5114 7.73035 13.3141 7.95259 12.0835 8.45326C10.853 8.95393 9.65565 9.56548 8.49166 10.3441C7.95946 10.7334 7.56046 10.9556 7.32766 11.067C7.09486 11.1784 6.92866 11.2335 6.79546 11.2335C6.32986 11.2335 6.09706 10.6772 6.09706 9.50929V6.78419C6.09706 5.89421 6.16366 5.22698 6.32986 4.83768C6.49606 4.44838 6.79546 4.05908 7.26106 3.66978C8.42506 2.66844 9.82215 1.83415 11.4518 1.16692C13.0816 0.44401 14.8108 0.110395 16.6402 0.110395C20.5981 0.110395 23.4916 1.61191 25.354 4.61544C27.1834 7.61897 28.1146 12.1792 28.1146 18.2971V36.3173H28.1812L28.1809 36.3178ZM14.6776 44.7716C15.7753 44.7716 16.906 44.4379 18.1033 43.7707C19.3006 43.1035 20.365 41.8799 21.2629 40.2113C21.7951 39.1548 22.1941 37.9864 22.3939 36.6519C22.5934 35.317 22.7263 33.7041 22.7263 31.8133V29.4775C21.7618 29.0882 20.7307 28.7546 19.6666 28.5318C18.6022 28.3096 17.5714 28.1982 16.5403 28.1982C14.3119 28.1982 12.6823 28.9211 11.5847 30.4231C10.487 31.9247 9.95505 34.0382 9.95505 36.819C9.95505 39.4332 10.3541 41.3797 11.1857 42.7142C11.984 44.1048 13.1479 44.7721 14.6779 44.7721L14.6776 44.7716ZM41.3845 50.7781C40.7857 50.7781 40.3867 50.6116 40.1206 50.2218C39.8545 49.8882 39.6217 49.1096 39.4222 48.0525L31.6063 5.06043C31.4068 3.94821 31.3069 3.2253 31.3069 2.836C31.3069 1.94603 31.573 1.44535 32.1052 1.44535H35.3647C35.9965 1.44535 36.4291 1.61241 36.6619 2.00171C36.928 2.33533 37.1275 3.11393 37.327 4.17096L42.9145 40.9894L48.103 4.17096C48.2692 3.05874 48.4687 2.33533 48.7348 2.00171C49.0009 1.6681 49.4665 1.44535 50.0653 1.44535H52.726C53.3578 1.44535 53.7904 1.61241 54.0565 2.00171C54.3226 2.33533 54.5554 3.11393 54.6883 4.17096L59.9431 41.4344L65.697 4.17096C65.8965 3.05874 66.1293 2.33533 66.3621 2.00171C66.6282 1.6681 67.0605 1.44535 67.6593 1.44535H70.7523C71.2845 1.44535 71.5839 1.89034 71.5839 2.836C71.5839 3.11393 71.5506 3.39236 71.5173 3.72597C71.484 4.05959 71.4174 4.50457 71.2845 5.11662L63.2691 48.1087C63.0696 49.2209 62.8368 49.9438 62.5707 50.278C62.3046 50.6116 61.8724 50.8343 61.3069 50.8343H58.4467C57.8146 50.8343 57.3823 50.6673 57.1162 50.278C56.8501 49.8887 56.6173 49.1657 56.4844 48.053L51.3292 12.1797L46.2073 47.9973C46.0411 49.1096 45.8413 49.8325 45.5752 50.2218C45.3091 50.6111 44.8435 50.7781 44.245 50.7781H41.3848H41.3845ZM84.1221 52.2796C82.3926 52.2796 80.6631 51.946 79.0002 51.2788C77.3373 50.6116 76.0401 49.8882 75.1755 49.0539C74.6433 48.5532 74.2776 47.9973 74.1444 47.4967C74.0115 46.996 73.9449 46.4401 73.9449 45.9395V43.103C73.9449 41.9351 74.211 41.3787 74.7099 41.3787C74.9094 41.3787 75.1089 41.4344 75.3084 41.5458C75.5079 41.6572 75.8073 41.8794 76.14 42.1021C77.2707 42.9364 78.5013 43.6037 79.7985 44.0486C81.129 44.4936 82.4259 44.7159 83.7564 44.7159C85.8516 44.7159 87.4815 44.1038 88.6122 42.8802C89.7429 41.6567 90.3417 39.8767 90.3417 37.5966C90.3417 36.0394 90.0423 34.7601 89.4438 33.7036C88.845 32.6466 87.7143 31.7014 86.0847 30.8114L81.2622 28.3086C78.8343 27.0293 77.0382 25.1385 75.9408 22.6356C74.8434 20.1885 74.2779 17.4634 74.2779 14.5712C74.2779 12.2354 74.5773 10.1775 75.1758 8.39757C75.7743 6.61763 76.5726 5.06043 77.5704 3.83684C78.5682 2.55757 79.6989 1.61241 81.0294 0.944682C82.3599 0.276952 83.7567 -0.000976562 85.2201 -0.000976562C85.9518 -0.000976562 86.7168 0.0547094 87.4485 0.221266C88.2135 0.388324 88.9119 0.610566 89.6103 0.832808C90.2754 1.11074 90.9075 1.38917 91.506 1.72278C92.1045 2.0564 92.5704 2.39001 92.9028 2.72413C93.3684 3.16911 93.7011 3.6141 93.9006 4.11427C94.1001 4.55925 94.2 5.1713 94.2 5.9499V8.56413C94.2 9.73203 93.9339 10.3441 93.435 10.3441C93.1689 10.3441 92.7366 10.1213 92.1711 9.67635C90.2754 8.23052 88.1466 7.5071 85.7853 7.5071C83.8896 7.5071 82.3929 8.00777 81.3618 9.0643C80.3307 10.1208 79.7985 11.7337 79.7985 14.0143C79.7985 15.5715 80.1312 16.9065 80.7963 17.963C81.4614 19.0196 82.692 20.0766 84.4548 21.0217L89.1777 23.5246C91.5723 24.8039 93.3018 26.5838 94.3329 28.8639C95.364 31.144 95.8629 33.7583 95.8629 36.6504C95.8629 39.0419 95.5635 41.2112 94.9983 43.102C94.3995 44.9933 93.6015 46.6614 92.5704 47.9963C91.5393 49.3865 90.3087 50.3878 88.8786 51.1107C87.3819 51.8893 85.8189 52.2786 84.1224 52.2786L84.1221 52.2796Z" fill="#7079F0"/>
<path fill-rule="evenodd" clip-rule="evenodd" d="M90.4083 79.3107C79.4661 92.8258 63.5683 100 49.8991 100C30.7417 100 13.4807 88.1537 0.443007 68.4654C-0.588091 66.9082 0.343407 64.7947 1.574 66.0183C15.6758 79.7 33.0703 87.9871 51.0631 87.9871C63.2026 87.9871 76.5394 83.76 88.812 75.0835C90.6411 73.6929 92.2044 77.0857 90.4083 79.3107Z" fill="#7079F0"/>
<path fill-rule="evenodd" clip-rule="evenodd" d="M94.9649 70.634C93.5681 67.6305 85.7189 69.1877 82.1603 69.9111C81.0959 70.1333 80.9297 68.5761 81.8942 67.4082C88.1468 60.0667 98.4239 62.1803 99.6212 64.6274C100.818 67.1303 99.2885 84.3162 93.4352 92.5472C92.5373 93.8265 91.6724 93.1592 92.0717 91.4907C93.4022 85.9843 96.362 73.5819 94.9652 70.634H94.9649Z" fill="#7079F0"/>
</g>
<defs>
<clipPath id="clip0_34_402">
<rect width="100" height="100" fill="white"/>
</clipPath>
</defs>
</svg>
