<svg width="123" height="123" viewBox="0 0 123 123" fill="none" xmlns="http://www.w3.org/2000/svg">
<g clip-path="url(#clip0_34_518)">
<path d="M120.56 55.9599L66.9099 2.31994C63.8199 -0.770059 58.8099 -0.770059 55.7199 2.31994L44.5799 13.4599L58.7099 27.5899C61.9999 26.4799 65.7599 27.2199 68.3799 29.8399C71.0099 32.4699 71.7499 36.2699 70.6099 39.5699L84.2299 53.1899C87.5299 52.0499 91.3299 52.7899 93.9599 55.4199C97.6399 59.0999 97.6399 65.0599 93.9599 68.7299C90.2799 72.4099 84.3199 72.4099 80.6399 68.7299C77.8699 65.9599 77.1899 61.8999 78.5899 58.4899L65.8899 45.7899V79.2199C66.7899 79.6599 67.6299 80.2599 68.3799 80.9999C72.0599 84.6799 72.0599 90.6399 68.3799 94.3199C64.6999 97.9999 58.7399 97.9999 55.0699 94.3199C51.3899 90.6399 51.3899 84.6799 55.0699 80.9999C55.9799 80.0899 57.0299 79.4099 58.1499 78.9499V45.2099C57.0299 44.7499 55.9799 44.0699 55.0699 43.1599C52.2799 40.3799 51.6099 36.2899 53.0399 32.8699L39.0999 18.9299L2.31994 55.7199C-0.770059 58.8099 -0.770059 63.8199 2.31994 66.9099L55.9699 120.56C59.0599 123.65 64.0699 123.65 67.1599 120.56L120.56 67.1699C123.65 64.0699 123.65 59.0599 120.56 55.9599Z" fill="#7079F0"/>
</g>
<defs>
<clipPath id="clip0_34_518">
<rect width="122.88" height="122.87" fill="white"/>
</clipPath>
</defs>
</svg>
