<svg width="100" height="100" viewBox="0 0 100 100" fill="none" xmlns="http://www.w3.org/2000/svg">
<g clip-path="url(#clip0_34_309)">
<path fill-rule="evenodd" clip-rule="evenodd" d="M49.9981 1.24588C22.3895 1.24588 0 23.6317 0 51.2438C0 73.3363 14.3247 92.0717 34.1916 98.686C36.6922 99.1492 37.6113 97.599 37.6113 96.2776C37.6113 95.0854 37.5614 91.1471 37.5411 86.9726C23.6298 89.9974 20.6973 81.0707 20.6973 81.0707C18.4236 75.2906 15.1459 73.7534 15.1459 73.7534C10.6097 70.6473 15.4911 70.7156 15.4911 70.7156C20.5108 71.0664 23.1536 75.8646 23.1536 75.8646C27.6161 83.5087 34.8541 81.2959 37.7053 80.0206C38.1556 76.7892 39.4475 74.582 40.8795 73.3326C29.7733 72.0721 18.0988 67.7832 18.0988 48.6232C18.0988 43.166 20.055 38.7037 23.2495 35.2045C22.7292 33.9423 21.0166 28.8598 23.7313 21.9742C23.7313 21.9742 27.9297 20.6288 37.4858 27.0992C41.472 25.9937 45.748 25.4363 49.9945 25.4179C54.2445 25.4363 58.528 25.9918 62.5199 27.0992C72.063 20.6326 76.2577 21.9742 76.2577 21.9742C78.9761 28.8617 77.2709 33.9478 76.7505 35.2046C79.9561 38.7037 81.8958 43.166 81.8958 48.6232C81.8958 67.8274 70.1953 72.0498 59.065 73.2882C60.8589 74.8384 62.4608 77.8817 62.4608 82.5434C62.4608 89.2296 62.4036 94.6184 62.4036 96.2628C62.4036 97.5934 63.3042 99.1492 65.8399 98.6618C85.6955 92.044 100.002 73.3065 100.002 51.2271C100.002 23.6185 77.6161 1.229 50.0019 1.229L49.9983 1.24572L49.9981 1.24588Z" fill="#7079F0"/>
</g>
<defs>
<clipPath id="clip0_34_309">
<rect width="100" height="100" fill="white"/>
</clipPath>
</defs>
</svg>
