<svg width="456" height="513" viewBox="0 0 456 513" fill="none" xmlns="http://www.w3.org/2000/svg">
<g clip-path="url(#clip0_34_471)">
<path d="M449.77 384.27C437.21 406.12 409.21 413.58 387.36 401.02C383.01 398.52 379.23 395.4 376.07 391.85L271.35 452.31C272.85 456.83 273.66 461.67 273.66 466.7C273.66 491.82 253.25 512.36 228 512.36C202.75 512.36 182.34 491.95 182.34 466.7C182.34 462.21 182.98 457.88 184.19 453.78L78.8602 392.97C75.9202 396.05 72.5102 398.77 68.6402 401.02C46.6602 413.58 18.7902 406.12 6.23016 384.27C-6.32984 362.42 1.13016 334.55 22.9802 321.86C26.8402 319.64 30.8902 318.05 35.0102 317.05V195.34C30.8402 194.34 26.7502 192.74 22.8502 190.5C1.00016 177.94 -6.45984 149.94 6.10016 128.09C18.6602 106.24 46.6602 98.78 68.5102 111.34C72.4202 113.61 75.8602 116.37 78.8202 119.49L184.21 58.65C182.964 54.4327 182.334 50.0575 182.34 45.66C182.34 20.41 202.75 0 228 0C253.25 0 273.66 20.41 273.66 45.66C273.66 50.2 273 54.58 271.77 58.71L377.13 119.55C380.1 116.4 383.56 113.63 387.49 111.34C409.34 98.78 437.21 106.24 449.9 128.09C462.46 149.94 455 177.81 433.15 190.5C429.25 192.74 425.16 194.34 420.99 195.34V317.05C425.11 318.05 429.16 319.64 433.02 321.86C455 334.55 462.46 362.42 449.77 384.27ZM56.7302 317.1C57.3402 317.25 57.9302 317.41 58.5302 317.59L196.46 78.7C196.01 78.27 195.58 77.85 195.15 77.4L89.5802 138.36C92.8602 149.85 91.6702 162.58 85.2602 173.75C78.8302 184.94 68.3502 192.35 56.7302 195.24V317.1ZM77.3602 328.41C80.4302 331.34 83.1502 334.75 85.3902 338.61C87.6102 342.47 89.2002 346.52 90.2002 350.65H365.8C366.8 346.52 368.39 342.47 370.61 338.61C372.785 334.826 375.493 331.374 378.65 328.36L240.76 89.52C236.71 90.7 232.43 91.32 228 91.32C223.58 91.32 219.32 90.7 215.28 89.54L77.3602 328.41ZM397.5 317.57C398.09 317.4 398.67 317.24 399.27 317.09V195.24C387.65 192.35 377.17 184.94 370.74 173.75C364.34 162.61 363.14 149.9 366.41 138.43L260.8 77.46C260.4 77.87 259.99 78.27 259.57 78.67L397.5 317.57ZM366.69 375.36C366.37 374.37 366.09 373.37 365.85 372.37H90.1402C90.0002 372.96 89.8402 373.55 89.6702 374.13L195.1 435.01C203.41 426.39 215.07 421.04 228 421.04C241.39 421.04 253.42 426.78 261.77 435.94L366.69 375.36Z" fill="#7079F0"/>
</g>
<defs>
<clipPath id="clip0_34_471">
<rect width="456" height="512.36" fill="white"/>
</clipPath>
</defs>
</svg>
