<svg width="83" height="94" viewBox="0 0 83 94" fill="none" xmlns="http://www.w3.org/2000/svg">
<path fill-rule="evenodd" clip-rule="evenodd" d="M0 0L7.55311 84.5985L41.4502 94L75.4316 84.5908L83 0H0ZM54.3579 48.6676L53.1552 62.1235L41.5498 65.2523L29.9827 62.1388L29.2473 53.8542H18.8138L20.2693 70.1481L41.6034 76.0384L62.8686 70.1481L65.7182 38.2946H27.8531L26.9032 27.6691H66.6605L67.5874 17.2961H15.5429L18.3466 48.6753L54.3579 48.6676ZM68.9586 79.2054L41.6417 86.7634V86.8016L41.5728 86.7787L41.5038 86.8016V86.7634L14.187 79.2054L7.72164 6.92301H75.4239L68.9586 79.2054Z" fill="#7079F0"/>
</svg>
