<svg width="512" height="512" viewBox="0 0 512 512" fill="none" xmlns="http://www.w3.org/2000/svg">
<g clip-path="url(#clip0_34_498)">
<path d="M170.663 256.157C170.58 209.036 208.718 170.757 255.83 170.675C302.951 170.583 341.237 208.704 341.329 255.834C341.42 302.964 303.282 341.234 256.153 341.326C209.041 341.416 170.754 303.287 170.663 256.157ZM124.555 256.249C124.696 328.851 183.661 387.576 256.245 387.434C328.837 387.294 387.595 328.345 387.454 255.743C387.313 183.166 328.34 124.407 255.739 124.549C183.154 124.69 124.414 183.663 124.555 256.249ZM361.659 119.157C361.692 136.111 375.476 149.839 392.431 149.806C409.392 149.772 423.12 135.995 423.095 119.041C423.062 102.087 409.277 88.351 392.315 88.385C375.353 88.418 361.626 102.203 361.659 119.157ZM152.963 464.557C128.005 463.471 114.452 459.323 105.42 455.848C93.4591 451.22 84.9241 445.671 75.9411 436.755C66.9751 427.804 61.4091 419.294 56.7391 407.358C53.2311 398.325 49.0091 384.789 47.8391 359.831C46.5701 332.848 46.2801 324.753 46.1561 256.398C46.0231 188.06 46.2721 179.964 47.4501 152.957C48.5191 128.016 52.6921 114.445 56.1591 105.421C60.7871 93.444 66.3201 84.925 75.2531 75.943C84.2021 66.96 92.7121 61.411 104.656 56.741C113.681 53.215 127.217 49.026 152.167 47.841C179.165 46.563 187.252 46.29 255.59 46.157C323.943 46.024 332.038 46.265 359.046 47.451C383.986 48.537 397.556 52.668 406.573 56.16C418.541 60.788 427.076 66.305 436.051 75.254C445.025 84.204 450.591 92.697 455.261 104.667C458.785 113.666 462.975 127.219 464.153 152.161C465.438 179.159 465.729 187.255 465.853 255.593C465.985 323.948 465.736 332.044 464.551 359.035C463.464 383.992 459.325 397.555 455.842 406.595C451.213 418.548 445.681 427.083 436.739 436.066C427.798 445.015 419.288 450.597 407.336 455.267C398.327 458.784 384.775 462.981 359.842 464.167C332.844 465.436 324.756 465.727 256.394 465.851C188.056 465.984 179.97 465.727 152.963 464.557ZM149.977 1.77299C122.738 3.05899 104.134 7.42099 87.8761 13.792C71.0471 20.353 56.7811 29.145 42.5901 43.395C28.3811 57.653 19.6551 71.944 13.1441 88.79C6.84114 105.089 2.56914 123.702 1.36614 150.958C0.172135 178.264 -0.101865 186.973 0.031135 256.489C0.164135 325.997 0.470135 334.723 1.77214 362.037C3.07414 389.268 7.42114 407.864 13.7911 424.129C20.3601 440.959 29.1441 455.218 43.4021 469.418C57.6521 483.618 71.9521 492.336 88.8061 498.856C105.088 505.15 123.708 509.439 150.956 510.633C178.261 511.836 186.978 512.101 256.477 511.969C326.009 511.836 334.727 511.529 362.032 510.235C389.271 508.933 407.858 504.571 424.132 498.216C440.961 491.631 455.227 482.863 469.42 468.605C483.611 454.354 492.337 440.055 498.848 423.201C505.152 406.919 509.44 388.297 510.625 361.067C511.82 333.744 512.103 325.018 511.969 255.51C511.836 185.994 511.522 177.285 510.228 149.988C508.934 122.732 504.571 104.144 498.209 87.87C491.632 71.041 482.857 56.79 468.607 42.582C454.357 28.39 440.057 19.647 423.203 13.153C406.913 6.84899 388.3 2.55299 361.053 1.37499C333.747 0.163994 325.03 -0.101006 255.506 0.0309942C185.999 0.163994 177.282 0.461994 149.977 1.77299Z" fill="#7079F0"/>
</g>
<defs>
<clipPath id="clip0_34_498">
<rect width="512" height="512" fill="white"/>
</clipPath>
</defs>
</svg>
