<svg width="123" height="122" viewBox="0 0 123 122" fill="none" xmlns="http://www.w3.org/2000/svg">
<g clip-path="url(#clip0_34_329)">
<path fill-rule="evenodd" clip-rule="evenodd" d="M120.03 90.3601L119.48 91.7901C110.11 110.04 93.4999 121.24 69.8099 121.73C58.7399 121.96 48.1799 119.12 41.2899 116.03C26.4099 109.35 13.8999 96.9501 7.06987 83.7101C-2.73013 64.7301 -4.50013 38.3201 15.8799 18.6001C16.1899 18.6001 13.4099 22.8801 13.7199 22.8801L13.1599 24.7101C-1.53013 70.6901 43.7199 110.09 87.6999 105.59C98.2799 104.49 111.76 98.7001 120.03 90.3601Z" fill="#7079F0"/>
<path fill-rule="evenodd" clip-rule="evenodd" d="M93.4098 71.3501C104.48 71.4301 116.03 66.2501 122.88 58.9901C116.89 74.1901 99.5498 83.9601 76.2998 80.8501C56.8298 78.2401 38.2898 58.6501 36.3798 39.0201C34.9798 24.7301 39.9598 16.2101 48.1698 5.86011C45.3198 11.2701 44.2498 15.4401 43.9898 18.1001C40.8598 49.0201 68.6698 71.1901 93.4098 71.3501Z" fill="#7079F0"/>
<path fill-rule="evenodd" clip-rule="evenodd" d="M121.77 32.97C120.05 36.92 110.15 44.37 105.77 45.3C88.4497 48.99 77.3597 40.78 71.5497 31.43C70.6897 30.03 69.0897 26.22 68.7997 25.25C66.5497 17.59 67.5797 6 74.2997 0C72.2797 5.7 71.9797 12.33 73.0497 16.64C73.6997 19.24 75.6597 23.79 77.6297 26.65C81.2097 31.86 83.4797 33.12 88.0897 35.89C90.1597 37.13 92.3897 38.13 93.3497 38.41C97.7097 39.69 106.92 43.07 121.77 32.97Z" fill="#7079F0"/>
</g>
<defs>
<clipPath id="clip0_34_329">
<rect width="122.88" height="121.74" fill="white"/>
</clipPath>
</defs>
</svg>
