<svg width="83" height="94" viewBox="0 0 83 94" fill="none" xmlns="http://www.w3.org/2000/svg">
<g clip-path="url(#clip0_8_91)">
<path fill-rule="evenodd" clip-rule="evenodd" d="M18.2732 43.6035H64.986V28.5641H50.1038C48.5415 28.5641 46.3671 27.6691 45.3375 26.5752C44.308 25.4813 43.6816 23.5077 43.6816 21.8553V5.8444H5.86789C5.73829 5.8444 5.63749 5.91325 5.57269 5.9821C5.4647 6.05859 5.4359 6.15804 5.4359 6.30339V87.7349C5.4359 87.842 5.5007 87.9797 5.5655 88.0485C5.63029 88.1556 5.76709 88.1862 5.86069 88.1862C22.262 88.1862 47.6847 88.1862 64.5468 88.1862C64.6764 88.1862 64.6692 88.1174 64.7412 88.0485C64.842 87.9797 64.9787 87.8343 64.9787 87.7349V79.1978H18.2732C15.2925 79.1978 12.8302 76.5968 12.8302 73.4146V49.3791C12.8302 46.2044 15.2781 43.6035 18.2732 43.6035ZM37.3169 51.5975H42.9616V62.1006C42.9616 64.3037 42.7816 65.9867 42.4072 67.1418C42.04 68.2892 41.2984 69.2684 40.1824 70.0716C39.0665 70.8672 37.6409 71.2726 35.8985 71.2726C34.0625 71.2726 32.637 71.0049 31.629 70.4771C30.6138 69.9492 29.8362 69.1766 29.2818 68.1592C28.7274 67.1494 28.4035 65.8872 28.3099 64.3955L33.6738 63.6229C33.681 64.472 33.753 65.0993 33.8826 65.5124C34.0121 65.9255 34.2353 66.2544 34.5593 66.5145C34.7753 66.6828 35.0777 66.7593 35.4809 66.7593C36.1145 66.7593 36.5753 66.5145 36.8705 66.0173C37.1657 65.52 37.3097 64.6862 37.3097 63.5081V51.5975H37.3169ZM45.7839 64.5409L51.119 64.1813C51.2342 65.0993 51.4718 65.8031 51.8246 66.2773C52.4078 67.0576 53.2286 67.4478 54.3086 67.4478C55.1077 67.4478 55.7269 67.2489 56.1589 66.8511C56.5981 66.4533 56.8141 65.9867 56.8141 65.4588C56.8141 64.9616 56.6125 64.5103 56.2021 64.1125C55.7917 63.7147 54.8341 63.3475 53.3294 62.988C50.8598 62.3989 49.1103 61.6187 48.0591 60.6395C47.0007 59.668 46.4679 58.4211 46.4679 56.9141C46.4679 55.9273 46.7415 54.9863 47.2815 54.1066C47.8215 53.2192 48.6351 52.5231 49.7294 52.0182C50.8166 51.5133 52.3142 51.2609 54.2078 51.2609C56.5333 51.2609 58.3045 51.7199 59.5285 52.6455C60.7524 53.5635 61.4724 55.0246 61.71 57.0365L56.4109 57.373C56.2741 56.4933 55.9717 55.8584 55.5253 55.4606C55.0717 55.0628 54.4454 54.8639 53.6534 54.8639C52.9982 54.8639 52.5014 55.0093 52.1774 55.3076C51.8462 55.5983 51.6806 55.9578 51.6806 56.3862C51.6806 56.6922 51.8174 56.9676 52.0838 57.2124C52.343 57.4725 52.9694 57.702 53.963 57.9238C56.4181 58.4899 58.1821 59.056 59.2405 59.6374C60.306 60.2111 61.0764 60.9225 61.566 61.7793C62.0484 62.6284 62.2932 63.5846 62.2932 64.6403C62.2932 65.8796 61.9692 67.0194 61.3284 68.075C60.6804 69.123 59.7804 69.9186 58.6213 70.4541C57.4621 70.9972 56.0077 71.265 54.2438 71.265C51.1478 71.265 49.0023 70.63 47.8143 69.3678C46.6119 68.098 45.9351 66.4915 45.7839 64.5409ZM70.4074 43.6035H77.5569C80.5521 43.6035 83 46.2121 83 49.3867V73.4222C83 76.5968 80.5449 79.2054 77.5569 79.2054H70.4074V89.5708C70.4074 90.8024 69.9395 91.8963 69.1835 92.7072C68.4203 93.5181 67.3907 94.0077 66.2315 94.0077C45.0351 94.0077 25.4875 94.0077 4.18312 94.0077C3.02394 94.0077 1.99436 93.5181 1.23118 92.7072C0.467993 91.8963 0.00720215 90.8024 0.00720215 89.5708V4.4751C0.00720215 3.24349 0.475193 2.14958 1.23118 1.3387C1.99436 0.527832 3.05274 0.0382487 4.18312 0.0382487H46.4607C46.5543 0 46.6551 0 46.7559 0C47.2167 0 47.6847 0.214193 48.0159 0.527832H48.0807C48.1455 0.566081 48.1815 0.59668 48.2463 0.665527L69.8387 23.8901C70.2058 24.2803 70.4722 24.8081 70.4722 25.4048C70.4722 25.5807 70.4362 25.7184 70.4074 25.902V43.6035ZM48.6135 21.3963V6.83887L64.0428 23.4388H50.5358C50.003 23.4388 49.5422 23.194 49.1751 22.8421C48.8439 22.4902 48.6135 21.9624 48.6135 21.3963Z" fill="#7079F0"/>
</g>
<defs>
<clipPath id="clip0_8_91">
<rect width="83" height="94" fill="white"/>
</clipPath>
</defs>
</svg>
