<svg width="100" height="100" viewBox="0 0 100 100" fill="none" xmlns="http://www.w3.org/2000/svg">
<g clip-path="url(#clip0_34_288)">
<path d="M77.4199 0H22.5801C10.1094 0 0 10.1563 0 22.6846V77.3154C0 89.8437 10.1094 100 22.5801 100H77.4199C89.8906 100 100 89.8437 100 77.3154V22.6846C100 10.1563 89.8906 0 77.4199 0Z" fill="#7079F0"/>
<path fill-rule="evenodd" clip-rule="evenodd" d="M40.0332 38.7608H52.668V45.2673H52.8516C54.6113 42.0964 58.9141 38.7608 65.3301 38.7608C78.6719 38.7608 81.1387 47.1019 81.1387 57.9527V80.8944H67.9629L67.9609 60.4624C67.9609 55.7904 67.8652 49.7783 61.1094 49.7783C54.25 49.7783 53.1973 54.8623 53.1973 60.1229V80.8944H40.0332V38.7608ZM32.5664 25.989C32.5664 29.7878 29.4961 32.8723 25.7148 32.8723C21.9316 32.8723 18.8613 29.7878 18.8613 25.989C18.8613 22.1883 21.9316 19.1057 25.7148 19.1057C29.4961 19.1057 32.5664 22.1883 32.5664 25.989ZM18.8613 38.7608H32.5664V80.8944H18.8613V38.7608Z" fill="#171717"/>
</g>
<defs>
<clipPath id="clip0_34_288">
<rect width="100" height="100" fill="white"/>
</clipPath>
</defs>
</svg>
