<svg width="100" height="115" viewBox="0 0 100 115" fill="none" xmlns="http://www.w3.org/2000/svg">
<g clip-path="url(#clip0_34_304)">
<path d="M27.542 56.4798C30.8822 62.7019 35.008 68.4703 39.8182 73.6438C45.4075 79.5187 51.9859 84.3683 59.2541 87.972C59.5071 88.1168 59.7905 88.2007 60.0817 88.217C60.3729 88.2332 60.6639 88.1814 60.9315 88.0655C61.8188 87.6603 62.6156 87.081 63.2743 86.3623C64.0384 85.5388 64.7519 84.67 65.411 83.7605C68.5222 79.6521 72.4019 74.5609 77.8653 77.0971C77.9871 77.1533 78.0714 77.2188 78.1933 77.2843L96.3921 87.738C96.4493 87.7817 96.5087 87.8223 96.5702 87.8597C97.6877 88.6594 98.587 89.7258 99.1861 90.9617C99.7852 92.1975 100.065 93.5634 100 94.9349C99.8714 98.1166 98.9537 101.217 97.3292 103.957C95.3204 107.407 92.2509 110.118 88.5766 111.687C85.1319 113.158 81.4982 114.141 77.7809 114.607C72.2448 115.42 66.5956 114.952 61.2689 113.241C55.4221 111.28 49.846 108.592 44.6725 105.239L44.2508 104.958C41.5519 103.292 38.6281 101.486 35.8167 99.3428C25.3023 91.4721 14.6753 80.0826 7.74064 67.5606C1.92113 57.032 -1.26507 45.6799 0.468599 34.8612C1.40572 28.9278 3.99217 23.5278 8.42474 19.9715C12.2857 16.855 17.5148 15.1517 24.2714 15.7413C24.6576 15.7614 25.0323 15.8793 25.3602 16.0839C25.6881 16.2886 25.9584 16.5733 26.1457 16.9112L37.7753 36.63C38.5469 37.515 39.0501 38.6011 39.226 39.7613C39.4019 40.9215 39.2433 42.1077 38.7687 43.1811C37.7437 45.2124 36.2022 46.939 34.2986 48.188C33.6707 48.7308 32.9117 49.2736 32.1339 49.8352C29.5287 51.7069 26.5111 53.9062 27.5607 56.4892V56.4331L27.542 56.4798ZM83.9847 39.9617L69.0564 54.8608L74.7915 55.048C81.4919 55.4691 79.9363 64.2476 74.2105 63.892L59.4977 62.8625C58.3948 62.7964 57.3507 62.3431 56.5499 61.5828C55.7491 60.8225 55.2432 59.804 55.1214 58.7072L53.0504 43.0501C52.4037 37.3413 61.1096 35.3291 61.8874 41.9645L63.0682 48.9086L77.9965 33.9721L83.9847 39.9617ZM59.8257 23.9489L74.754 9.04048L69.0189 8.8533C62.3185 8.4228 63.8741 -0.336963 69.5999 -4.90401e-05L84.3408 1.03877C85.4437 1.10488 86.4878 1.55813 87.2886 2.31846C88.0894 3.07879 88.5954 4.09729 88.7171 5.19404L90.7882 20.8793C91.4348 26.5881 82.7289 28.6002 81.9511 21.9742L80.7704 15.0207L65.8139 29.9479L59.8257 23.9676V23.9489Z" fill="#7079F0"/>
</g>
<defs>
<clipPath id="clip0_34_304">
<rect width="100" height="115" fill="white"/>
</clipPath>
</defs>
</svg>
