<svg width="512" height="512" viewBox="0 0 512 512" fill="none" xmlns="http://www.w3.org/2000/svg">
<path d="M299.052 61.73C278.252 36.83 260.338 11.544 256.679 6.29204C256.593 6.19952 256.488 6.12573 256.373 6.07528C256.257 6.02482 256.132 5.99878 256.005 5.99878C255.879 5.99878 255.754 6.02482 255.638 6.07528C255.522 6.12573 255.418 6.19952 255.332 6.29204C251.672 11.544 233.759 36.83 212.959 61.73C34.4188 291.448 241.077 446.476 241.077 446.476L242.81 447.643C244.355 471.568 248.207 506 248.207 506H263.615C263.615 506 267.467 471.762 269.007 447.643L270.74 446.283C270.933 446.476 477.593 291.448 299.052 61.73ZM255.912 443.171C255.912 443.171 246.662 435.193 244.162 431.112V430.722L255.332 180.576C255.332 179.799 256.486 179.799 256.486 180.576L267.656 430.722V431.112C265.156 435.193 255.911 443.172 255.911 443.172L255.912 443.171Z" fill="#7079F0"/>
</svg>
