<svg width="123" height="84" viewBox="0 0 123 84" fill="none" xmlns="http://www.w3.org/2000/svg">
<g clip-path="url(#clip0_34_373)">
<path d="M29.54 76.2301H24.8C24.64 68.2301 24.18 60.6834 23.42 53.5901L16.16 76.2301H12.55L5.37 53.5901C4.84333 60.3834 4.51 67.9301 4.37 76.2301H0C0.28 66.1301 0.98 56.6601 2.1 47.8201H8L14.84 68.6901L21.72 47.8201H27.34C28.5667 58.1667 29.2933 67.6367 29.52 76.2301H29.54Z" fill="#7079F0"/>
<path d="M50.11 55.27C48.1833 65.7567 45.6366 73.39 42.47 78.17C40.01 81.8434 37.31 83.6767 34.37 83.67C33.371 83.622 32.3902 83.3844 31.48 82.97V80.44C32.1429 80.5276 32.8113 80.5677 33.48 80.56C34.6884 80.6163 35.8725 80.2085 36.79 79.42C37.2514 79.0415 37.6254 78.5675 37.8861 78.0306C38.1467 77.4937 38.2879 76.9067 38.3 76.31C38.1055 74.6556 37.7127 73.0306 37.13 71.47L31.93 55.27H36.58L40.32 67.39C41.16 70.1434 41.51 72.0634 41.37 73.15C43.485 67.3761 44.9213 61.3758 45.65 55.27H50.11Z" fill="#7079F0"/>
<path d="M70.8798 68.3499C70.9093 69.474 70.6876 70.5905 70.2308 71.6181C69.7741 72.6457 69.094 73.5585 68.2398 74.2899C66.2424 75.9081 63.7172 76.7308 61.1498 76.5999C58.2615 76.572 55.4501 75.6651 53.0898 73.9999L54.3098 71.5599C56.1791 72.5831 58.2604 73.1582 60.3898 73.2399C61.8118 73.3195 63.2197 72.9218 64.3898 72.1099C64.876 71.7405 65.2686 71.2621 65.5361 70.7132C65.8035 70.1644 65.9384 69.5604 65.9298 68.9499C65.9298 67.2699 64.7598 65.8299 62.5998 64.6199C60.5998 63.5199 56.5998 61.2399 56.5998 61.2399C55.5786 60.6143 54.7411 59.7298 54.172 58.6761C53.603 57.6224 53.3228 56.4369 53.3598 55.2399C53.324 54.1885 53.5225 53.1423 53.9411 52.1772C54.3597 51.2121 54.9878 50.3522 55.7798 49.6599C57.5159 48.1937 59.7395 47.4335 62.0098 47.5299C64.5559 47.5085 67.0512 48.2428 69.1798 49.6399L68.1498 51.9999C66.4329 51.2382 64.5781 50.8366 62.6998 50.8199C61.4945 50.7246 60.2969 51.081 59.3398 51.8199C58.9449 52.1508 58.6267 52.5637 58.4074 53.03C58.1881 53.4962 58.0729 54.0046 58.0698 54.5199C58.0698 56.1999 59.2698 57.6599 61.4798 58.8899C63.4798 59.9799 67.5598 62.3099 67.5598 62.3099C69.7798 63.8799 70.8798 65.5599 70.8798 68.3099V68.3499Z" fill="#7079F0"/>
<path fill-rule="evenodd" clip-rule="evenodd" d="M79.3501 70.54C78.2101 68.69 77.6301 65.72 77.6301 61.63C77.6301 54.47 79.8001 50.8934 84.1401 50.9C85.1274 50.8326 86.1145 51.0352 86.9953 51.4862C87.8762 51.9372 88.6176 52.6196 89.1401 53.46C90.2934 55.3067 90.8668 58.2534 90.8601 62.3C90.8601 69.5134 88.6934 73.1167 84.3601 73.11C83.3731 73.1753 82.3869 72.9717 81.5064 72.5209C80.6259 72.0701 79.8842 71.389 79.3601 70.55L79.3501 70.54ZM96.2201 76.91L91.0001 74.34C91.4721 73.9582 91.9074 73.533 92.3001 73.07C94.5134 70.4634 95.6201 66.6067 95.6201 61.5C95.6201 52.1 91.9534 47.4 84.6201 47.4C83.0287 47.3146 81.4389 47.5946 79.9725 48.2186C78.506 48.8426 77.2019 49.7941 76.1601 51C73.9534 53.6134 72.8501 57.4567 72.8501 62.53C72.8501 67.6034 73.8301 71.27 75.7901 73.53C77.5701 75.63 80.2701 76.69 83.8801 76.69C85.1343 76.701 86.3836 76.5326 87.5901 76.19L94.3701 80.14L96.2201 76.95V76.91Z" fill="#7079F0"/>
<path d="M113.22 76.2301H99.75V47.8201H104.28V72.7301H113.22V76.2301Z" fill="#7079F0"/>
<path d="M116.45 76.22H117.2V73.33H118.2V72.74H115.44V73.33H116.44V76.22H116.45ZM122.17 76.22H122.88V72.74H121.81L120.94 75.12L120 72.74H119V76.22H119.67V73.58L120.67 76.22H121.18L122.18 73.58V76.22H122.17Z" fill="#7079F0"/>
<path fill-rule="evenodd" clip-rule="evenodd" d="M118.91 38.3099C116.651 38.1655 114.387 38.5065 112.27 39.3099C111.76 39.5199 110.94 39.5199 110.87 40.1699C111.14 40.4399 111.17 40.8899 111.42 41.2699C111.883 42.0647 112.482 42.7721 113.19 43.3599C113.91 43.9099 114.63 44.4599 115.39 44.9399C116.72 45.7599 118.23 46.2399 119.52 47.0699C120.28 47.5499 121.03 48.1599 121.79 48.6799C122.16 48.9499 122.4 49.3999 122.88 49.5699V49.4699C122.64 49.1599 122.57 48.7099 122.33 48.3699L121.33 47.3699C120.326 46.04 119.125 44.8701 117.77 43.8999C116.67 43.1399 114.27 42.1099 113.83 40.8999L113.76 40.8299C114.562 40.7144 115.352 40.527 116.12 40.2699C117.29 39.9699 118.35 40.0399 119.54 39.7299C120.09 39.5899 120.64 39.4199 121.19 39.2499V38.9399C120.57 38.3199 120.13 37.4999 119.48 36.9399C117.705 35.3935 115.817 33.9828 113.83 32.7199C112.77 32.0399 111.4 31.5899 110.27 31.0099C109.86 30.7999 109.18 30.6999 108.94 30.3499C108.376 29.5234 107.903 28.6382 107.53 27.7099C106.53 25.8299 105.53 23.7099 104.73 21.7099C104.231 20.3475 103.654 19.0153 103 17.7199C99.8177 12.313 95.2234 7.87427 89.7101 4.87995C88.3247 4.20586 86.8496 3.73437 85.3301 3.47995C84.4801 3.47995 83.6201 3.36995 82.7701 3.33995C82.2145 2.97954 81.6864 2.57844 81.1901 2.13995C79.1901 0.899947 74.1901 -1.77005 72.7701 1.75995C71.8501 3.99995 74.1401 6.18995 74.9301 7.31995C75.5903 8.1195 76.1729 8.98005 76.6701 9.88995C76.9101 10.4799 76.9801 11.0999 77.2201 11.7099C77.7221 13.2771 78.3165 14.8131 79.0001 16.3099C79.3706 17.0502 79.795 17.7621 80.2701 18.4399C80.5401 18.8199 81.0201 18.9899 81.1201 19.6099C80.7446 20.4272 80.4821 21.2918 80.3401 22.1799C79.1001 26.0599 79.5801 30.8599 81.3401 33.7099C81.8801 34.5699 83.1901 36.4599 84.9301 35.7099C86.4701 35.0999 86.1301 33.1399 86.5801 31.4299C86.6801 31.0099 86.5801 30.7399 86.8101 30.4299V30.4899C87.2901 31.4899 87.8101 32.3799 88.2201 33.3399C89.4339 35.1268 90.934 36.7012 92.6601 37.9999C93.4801 38.6199 94.1301 39.6799 95.1601 40.0599V39.9999H95.0901C94.8582 39.7363 94.5926 39.5043 94.3001 39.3099C93.6504 38.6741 93.055 37.985 92.5201 37.2499C91.0688 35.2788 89.7875 33.1879 88.6901 30.9999C88.1401 29.9299 87.6901 28.7599 87.2201 27.6999C87.0101 27.2899 87.0101 26.6999 86.6701 26.4699C86.0243 27.1677 85.4637 27.9398 85.0001 28.7699C84.4275 30.4417 84.0909 32.1852 84.0001 33.9499C83.8601 33.9499 83.9301 33.9499 83.8601 34.0199C82.7701 33.7399 82.3901 32.6099 81.9801 31.6499C80.9135 28.7057 80.805 25.4996 81.6701 22.4899C81.9101 21.7699 82.9401 19.4899 82.5201 18.8199C82.3201 18.1599 81.6301 17.8199 81.2601 17.2699C80.7791 16.5821 80.3671 15.8486 80.0301 15.0799C79.2101 13.1499 78.7901 11.0299 77.9101 9.07995C77.4099 8.1544 76.8346 7.27144 76.1901 6.43995C75.4781 5.61319 74.8485 4.71895 74.3101 3.76995C74.1401 3.38995 73.9001 2.76995 74.1701 2.35995C74.1909 2.24322 74.2489 2.13635 74.3354 2.05526C74.4219 1.97417 74.5323 1.9232 74.6501 1.90995C75.1001 1.52995 76.3601 2.00995 76.8101 2.21995C78.0273 2.67978 79.1882 3.27698 80.2701 3.99995C80.7501 4.33995 81.2701 4.99995 81.8701 5.15995H82.5901C83.6901 5.39995 84.9201 5.22995 85.9501 5.53995C87.6871 6.11813 89.3437 6.9145 90.8801 7.90995C95.4141 10.8088 99.0964 14.8604 101.55 19.6499C101.97 20.4299 102.14 21.1599 102.55 21.9799C103.27 23.6599 104.16 25.3799 104.88 26.9799C105.512 28.6008 106.328 30.1441 107.31 31.5799C107.83 32.2999 109.88 32.6799 110.8 33.0599C111.607 33.3505 112.399 33.6843 113.17 34.0599C114.33 34.7799 115.49 35.5999 116.59 36.3899C117.13 36.8099 118.85 37.6599 118.95 38.3899L118.91 38.3099Z" fill="#7079F0"/>
<path fill-rule="evenodd" clip-rule="evenodd" d="M83.9998 8.48C83.5238 8.47518 83.0494 8.53575 82.5898 8.66V8.73H82.6599C82.9929 9.2221 83.3605 9.68995 83.7598 10.13C84.0298 10.68 84.2698 11.23 84.5398 11.78L84.6098 11.71C84.8639 11.5084 85.063 11.2461 85.1888 10.9472C85.3147 10.6483 85.3632 10.3226 85.3298 10C85.1298 9.76 85.0898 9.52 84.9198 9.28C84.7498 9.04 84.2698 8.77 83.9998 8.49V8.48Z" fill="#7079F0"/>
</g>
<defs>
<clipPath id="clip0_34_373">
<rect width="122.88" height="83.67" fill="white"/>
</clipPath>
</defs>
</svg>
