<svg width="109" height="123" viewBox="0 0 109 123" fill="none" xmlns="http://www.w3.org/2000/svg">
<g clip-path="url(#clip0_34_351)">
<path fill-rule="evenodd" clip-rule="evenodd" d="M68.43 87.08C48.73 87.08 44.6 78.08 44.6 70.45C44.6 70.1053 44.737 69.7746 44.9808 69.5308C45.2246 69.287 45.5552 69.15 45.9 69.15H51.72C52.0294 69.1511 52.3282 69.2625 52.5628 69.4641C52.7974 69.6657 52.9524 69.9444 53 70.25C53.88 76.18 56.49 79.17 68.41 79.17C77.9 79.17 81.93 77 81.93 72C81.93 69.1 80.78 67 66.04 65.51C53.71 64.29 46.04 61.58 46.04 51.71C46.04 42.63 53.7 37.22 66.54 37.22C80.96 37.22 88.1 42.22 89 52.98C89.0145 53.1619 88.9909 53.3448 88.9306 53.517C88.8703 53.6892 88.7748 53.8469 88.65 53.98C88.5214 54.1154 88.3662 54.2226 88.194 54.2949C88.0219 54.3672 87.8367 54.403 87.65 54.4H81.9C81.6078 54.4007 81.324 54.3022 81.0951 54.1205C80.8661 53.9388 80.7057 53.6848 80.64 53.4C79.23 47.17 75.83 45.17 66.57 45.17C56.21 45.15 55 48.76 55 51.46C55 54.74 56.42 55.7 70.4 57.55C84.38 59.4 90.82 62 90.82 71.71C90.82 81.42 82.64 87.14 68.37 87.14L68.43 87.08ZM54.52 122.88C52.8634 122.881 51.2357 122.446 49.8 121.62L34.8 112.72C32.55 111.46 33.65 111.02 34.39 110.72C36.7756 109.97 39.0596 108.929 41.19 107.62C41.368 107.537 41.5644 107.5 41.7604 107.514C41.9565 107.528 42.1457 107.592 42.31 107.7L53.86 114.55C54.076 114.663 54.3162 114.722 54.56 114.722C54.8038 114.722 55.044 114.663 55.26 114.55L100.26 88.55C100.471 88.4237 100.645 88.2449 100.766 88.0311C100.887 87.8173 100.95 87.5757 100.95 87.33V35.43C100.951 35.1804 100.887 34.9349 100.764 34.7175C100.641 34.5001 100.464 34.3183 100.25 34.19L55.25 8.19004C55.039 8.06706 54.7992 8.00226 54.555 8.00226C54.3108 8.00226 54.071 8.06706 53.86 8.19004L8.86002 34.19C8.64411 34.3147 8.46483 34.494 8.3402 34.7099C8.21557 34.9258 8.14997 35.1707 8.15002 35.42V87.42C8.14942 87.6656 8.21389 87.9069 8.33684 88.1194C8.4598 88.332 8.63686 88.5081 8.85002 88.63L21.18 95.75C27.85 99.06 32 95.11 32 91.15V39.86C31.9987 39.6881 32.0317 39.5176 32.0972 39.3586C32.1627 39.1996 32.2593 39.0553 32.3813 38.9342C32.5034 38.8131 32.6484 38.7176 32.8079 38.6534C32.9674 38.5891 33.1381 38.5574 33.31 38.56H39C39.1711 38.5587 39.3407 38.5914 39.4991 38.6563C39.6574 38.7211 39.8012 38.8169 39.9222 38.9378C40.0432 39.0588 40.1389 39.2027 40.2038 39.361C40.2686 39.5193 40.3013 39.689 40.3 39.86V91.17C40.3 100.1 35.43 105.17 26.97 105.17C24.37 105.17 22.31 105.17 16.59 102.35L4.72002 95.59C3.28462 94.7531 2.09354 93.5548 1.26541 92.1143C0.437277 90.6739 0.000993694 89.0416 1.60058e-05 87.38L1.60058e-05 35.38C-0.00303989 33.7177 0.431539 32.0838 1.26007 30.6427C2.08861 29.2015 3.2819 28.0038 4.72002 27.17L49.79 1.17004C51.2425 0.377942 52.8706 -0.0371094 54.525 -0.0371094C56.1795 -0.0371094 57.8075 0.377942 59.26 1.17004L104.26 27.17C105.708 28.0071 106.909 29.2119 107.741 30.6624C108.574 32.1129 109.008 33.7577 109 35.43V87.43C108.996 89.091 108.558 90.7221 107.731 92.1621C106.903 93.602 105.713 94.8009 104.28 95.64L59.28 121.64C57.8375 122.468 56.2031 122.902 54.54 122.9L54.52 122.88Z" fill="#7079F0"/>
</g>
<defs>
<clipPath id="clip0_34_351">
<rect width="109" height="122.88" fill="white"/>
</clipPath>
</defs>
</svg>
