<svg width="464" height="512" viewBox="0 0 464 512" fill="none" xmlns="http://www.w3.org/2000/svg">
<g clip-path="url(#clip0_34_321)">
<path fill-rule="evenodd" clip-rule="evenodd" d="M231.822 132.778C233.022 127.626 238.174 124.421 243.327 125.62C248.48 126.82 251.684 131.972 250.485 137.125L229.712 226.097C228.513 231.25 223.36 234.455 218.208 233.255C213.055 232.056 209.85 226.903 211.05 221.75L231.822 132.778ZM21.123 259.247H37.837V52.395C37.837 23.601 61.438 8.94083e-07 90.232 8.94083e-07H320.737C321.976 -0.000584838 323.198 0.286631 324.307 0.839002C325.416 1.39137 326.381 2.1938 327.127 3.183L424.003 107.992C425.368 109.463 426.124 111.396 426.121 113.403H426.162V259.247H442.876C454.494 259.247 464 268.772 464 280.371V444.234C464 455.833 454.474 465.358 442.876 465.358H425.818C422.817 491.235 400.345 511.863 373.767 511.863H90.232C63.512 511.863 41.15 491.337 38.177 465.358H21.123C9.526 465.358 0 455.853 0 444.234V280.371C0 268.752 9.506 259.247 21.123 259.247ZM53.854 259.247H410.146V136.525H377.927V136.492H377.803C358.692 136.19 343.735 131.119 333.067 122.006C321.994 112.548 315.785 99.037 314.547 82.243L314.472 81.145V16.016H90.232C70.2 16.016 53.854 32.362 53.854 52.395V259.247ZM409.649 465.358H54.344C57.206 482.515 72.325 495.846 90.232 495.846H373.767C391.57 495.846 406.76 482.452 409.649 465.358ZM330.467 30.272V81.11C331.38 93.522 335.732 103.302 343.437 109.885C351.259 116.567 362.777 120.303 377.927 120.561V120.531H410.146V116.479L330.467 30.272ZM199.303 204.095C203.275 207.572 203.68 213.616 200.203 217.588C196.725 221.561 190.682 221.965 186.709 218.488L150.355 186.634C146.383 183.157 145.978 177.113 149.455 173.141C149.75 172.805 150.061 172.497 150.388 172.214L186.709 140.388C190.682 136.91 196.725 137.315 200.203 141.287C203.68 145.26 203.275 151.303 199.303 154.781L171.163 179.437L199.303 204.095ZM277.293 218.488C273.321 221.965 267.277 221.561 263.8 217.588C260.322 213.616 260.727 207.572 264.699 204.095L292.839 179.437L264.699 154.781C260.727 151.303 260.322 145.26 263.8 141.287C267.277 137.315 273.321 136.91 277.293 140.388L313.611 172.214C313.939 172.497 314.25 172.805 314.544 173.141C318.021 177.113 317.617 183.157 313.645 186.634L277.293 218.488ZM225.922 341.583H206.219V404.762H179.045V341.583H159.345V319.845H225.922V341.583ZM233.055 403.268L236.859 382.85C245.192 384.933 252.686 385.973 259.343 385.973C266.003 385.973 271.368 385.703 275.445 385.158V376.366L263.217 375.279C252.166 374.281 244.581 371.632 240.457 367.329C236.337 363.027 234.276 356.664 234.276 348.24C234.276 336.647 236.79 328.675 241.817 324.329C246.845 319.979 255.382 317.806 267.428 317.806C279.475 317.806 290.341 318.939 300.036 321.204L296.638 340.942C288.214 339.583 281.469 338.903 276.396 338.903C271.323 338.903 267.021 339.129 263.489 339.583V348.24L273.271 349.192C285.136 350.37 293.331 353.2 297.859 357.684C302.39 362.168 304.654 368.394 304.654 376.366C304.654 382.072 303.884 386.894 302.343 390.836C300.803 394.776 298.971 397.763 296.842 399.802C294.712 401.84 291.7 403.403 287.808 404.489C283.915 405.576 280.495 406.233 277.552 406.459C274.608 406.688 270.688 406.8 265.797 406.8C254.023 406.8 243.11 405.623 233.055 403.268Z" fill="#7079F0"/>
</g>
<defs>
<clipPath id="clip0_34_321">
<rect width="464" height="511.863" fill="white"/>
</clipPath>
</defs>
</svg>
