<svg width="504" height="300" viewBox="0 0 504 300" fill="none" xmlns="http://www.w3.org/2000/svg">
<g clip-path="url(#clip0_34_477)">
<path d="M46.7501 3.83994e-05H456.84C463.014 -0.00785888 469.13 1.20244 474.836 3.56162C480.541 5.92079 485.726 9.38248 490.092 13.7484C494.458 18.1143 497.919 23.2987 500.279 29.0046C502.638 34.7104 503.848 40.8257 503.84 47V203.5C503.848 209.674 502.638 215.79 500.279 221.496C497.919 227.201 494.458 232.386 490.092 236.752C485.726 241.118 480.541 244.579 474.836 246.938C469.13 249.298 463.014 250.508 456.84 250.5H309.78L330 299.89L241.22 250.46H47.0001C40.8257 250.468 34.7105 249.258 29.0046 246.898C23.2987 244.539 18.1144 241.078 13.7484 236.712C9.38252 232.346 5.92083 227.161 3.56165 221.456C1.20248 215.75 -0.00781997 209.634 7.73093e-05 203.46V47C-0.0302181 40.8396 1.15683 34.7339 3.49305 29.0336C5.82927 23.3333 9.26863 18.1507 13.6136 13.7834C17.9585 9.41616 23.1235 5.95032 28.8118 3.58495C34.5 1.21957 40.5996 0.00128109 46.7601 3.83994e-05H46.7501Z" fill="#7079F0"/>
<path d="M28.6901 42.8002C31.5501 38.9102 35.8501 36.8602 41.5901 36.4502C52.0301 35.6435 57.9701 40.5602 59.4101 51.2002C65.7635 94.0002 72.6568 130.267 80.0901 160L124.94 74.6002C129.04 66.8202 134.16 62.7235 140.3 62.3102C149.3 61.7002 154.84 67.4302 157.1 79.5102C162.22 106.75 168.77 129.89 176.55 149.51C181.883 97.5102 190.883 59.9635 203.55 36.8702C206.62 31.1402 211.12 28.2702 217.06 27.8702C221.75 27.4823 226.402 28.9672 230 32.0002C231.833 33.377 233.348 35.1315 234.444 37.1449C235.539 39.1584 236.189 41.3837 236.35 43.6702C236.64 47.0709 235.946 50.4832 234.35 53.5002C226.35 68.2502 219.8 93.0302 214.48 127.43C209.36 160.82 207.48 186.83 208.75 205.43C209.249 210.08 208.394 214.774 206.29 218.95C203.83 223.46 200.14 225.95 195.43 226.32C190.11 226.73 184.58 224.27 179.26 218.75C160.18 199.277 145.093 170.187 134 131.48C120.667 157.694 110.837 177.36 104.51 190.48C92.4201 213.62 82.1801 225.48 73.5801 226.12C68.0001 226.51 63.3001 221.8 59.2001 212C48.7601 185.147 37.4968 133.32 25.4101 56.5202C24.9712 54.131 25.0362 51.6764 25.601 49.3138C26.1659 46.9511 27.218 44.7325 28.6901 42.8002ZM468.81 75.0002C461.43 62.0502 450.58 54.2702 436 51.2002C432.385 50.4226 428.698 50.0205 425 50.0002C405.34 50.0002 389.37 60.2402 376.87 80.7202C366.222 98.0869 360.677 118.1 360.87 138.47C360.87 154.244 364.147 167.76 370.7 179.02C378.07 191.93 388.93 199.71 403.47 202.78C407.108 203.57 410.818 203.979 414.54 204C434.4 204 450.37 193.76 462.66 173.28C473.293 155.815 478.835 135.727 478.66 115.28C478.84 99.3302 475.36 86.0002 468.81 75.0002ZM443 131.69C440.14 145.2 435 155.24 427.44 162C421.5 167.32 415.97 169.57 410.85 168.55C405.93 167.55 401.85 163.23 398.77 155.24C396.406 149.306 395.155 142.987 395.08 136.6C395.03 131.58 395.51 126.569 396.51 121.65C398.441 112.875 402.136 104.584 407.37 97.2802C414.13 87.2802 421.29 83.1502 428.67 84.5802C433.58 85.5802 437.67 89.9102 440.75 97.8902C443.115 103.824 444.365 110.143 444.44 116.53C444.501 121.62 444.019 126.703 443 131.69ZM340.6 75.0002C333.23 62.0902 322.17 54.3102 307.84 51.2402C304.206 50.4456 300.5 50.03 296.78 50.0002C277.12 50.0002 261.14 60.2402 248.65 80.7202C238.002 98.0869 232.457 118.1 232.65 138.47C232.65 154.244 235.927 167.76 242.48 179.02C249.85 191.93 260.7 199.71 275.24 202.78C278.884 203.571 282.601 203.98 286.33 204C306.2 204 322.17 193.76 334.46 173.28C345.094 155.815 350.635 135.727 350.46 115.28C350.43 99.3302 347.16 86.0002 340.6 75.0002ZM314.6 131.73C311.74 145.24 306.6 155.28 299.04 162.04C293.1 167.36 287.57 169.61 282.45 168.59C277.54 167.59 273.45 163.27 270.37 155.28C268.006 149.346 266.755 143.027 266.68 136.64C266.631 131.62 267.11 126.609 268.11 121.69C270.045 112.899 273.75 104.593 279 97.2802C285.76 87.2802 292.92 83.1502 300.3 84.5802C305.21 85.5802 309.3 89.9102 312.38 97.8902C314.721 103.829 315.948 110.147 316 116.53C316.161 121.624 315.677 126.718 314.56 131.69L314.6 131.73Z" fill="#171717"/>
</g>
<defs>
<clipPath id="clip0_34_477">
<rect width="503.81" height="299.89" fill="white"/>
</clipPath>
</defs>
</svg>
