<svg width="123" height="123" viewBox="0 0 123 123" fill="none" xmlns="http://www.w3.org/2000/svg">
<g clip-path="url(#clip0_34_315)">
<path d="M61.44 0C27.51 0 0 27.51 0 61.44C0 95.37 27.51 122.88 61.44 122.88C95.37 122.88 122.88 95.37 122.88 61.44C122.88 27.51 95.37 0 61.44 0ZM106.37 36.88C106.59 38.51 106.71 40.26 106.71 42.14C106.71 47.33 105.74 53.17 102.82 60.48L87.18 105.69C102.4 96.82 112.64 80.32 112.64 61.44C112.64 52.54 110.37 44.17 106.37 36.88ZM62.34 65.92L46.98 110.56C51.57 111.91 56.42 112.65 61.44 112.65C67.4 112.65 73.12 111.62 78.44 109.75C78.3 109.53 78.18 109.3 78.07 109.04L62.34 65.92ZM96 58.86C96 52.53 93.73 48.15 91.78 44.74C89.18 40.52 86.75 36.95 86.75 32.73C86.75 28.02 90.32 23.64 95.35 23.64C95.58 23.64 95.79 23.67 96.01 23.68C86.9 15.33 74.76 10.24 61.44 10.24C43.55 10.24 27.82 19.42 18.66 33.32C19.86 33.36 20.99 33.38 21.96 33.38C27.31 33.38 35.61 32.73 35.61 32.73C38.37 32.57 38.69 36.62 35.94 36.95C35.94 36.95 33.17 37.27 30.08 37.44L48.72 92.9L59.93 59.3L51.95 37.44C49.19 37.28 46.58 36.95 46.58 36.95C43.82 36.79 44.14 32.57 46.9 32.73C46.9 32.73 55.35 33.38 60.38 33.38C65.73 33.38 74.03 32.73 74.03 32.73C76.79 32.57 77.11 36.62 74.36 36.95C74.36 36.95 71.58 37.27 68.5 37.44L87 92.47L92.28 75.73C94.63 68.42 96 63.24 96 58.86ZM10.24 61.44C10.24 81.71 22.02 99.22 39.1 107.52L14.67 40.6C11.83 46.97 10.24 54.01 10.24 61.44ZM61.44 3.69C69.24 3.69 76.8 5.22 83.92 8.23C87.34 9.68 90.64 11.47 93.73 13.55C96.79 15.62 99.67 17.99 102.28 20.6C104.89 23.21 107.27 26.09 109.33 29.15C111.42 32.24 113.21 35.54 114.65 38.96C117.66 46.08 119.19 53.64 119.19 61.44C119.19 69.24 117.66 76.8 114.65 83.92C113.2 87.34 111.41 90.64 109.33 93.73C107.26 96.79 104.89 99.67 102.28 102.28C99.67 104.89 96.79 107.27 93.73 109.33C90.64 111.42 87.34 113.21 83.92 114.65C76.8 117.66 69.24 119.19 61.44 119.19C53.64 119.19 46.08 117.66 38.96 114.65C35.54 113.2 32.24 111.41 29.15 109.33C26.09 107.26 23.21 104.89 20.6 102.28C17.99 99.67 15.61 96.79 13.55 93.73C11.46 90.64 9.67 87.34 8.23 83.92C5.21 76.8 3.69 69.24 3.69 61.44C3.69 53.64 5.22 46.08 8.23 38.96C9.68 35.54 11.47 32.24 13.55 29.15C15.62 26.09 17.99 23.21 20.6 20.6C23.21 17.99 26.09 15.61 29.15 13.55C32.24 11.46 35.54 9.67 38.96 8.23C46.08 5.21 53.64 3.69 61.44 3.69Z" fill="#7079F0"/>
</g>
<defs>
<clipPath id="clip0_34_315">
<rect width="122.88" height="122.88" fill="white"/>
</clipPath>
</defs>
</svg>
